<svg width="37" height="37" viewBox="0 0 37 37" fill="none" xmlns="http://www.w3.org/2000/svg">
<g id="deleteButton">
<rect width="37" height="37" rx="12" fill="#1A8509"/>
<g id="&#240;&#159;&#166;&#134; icon &#34;edit&#34;">
<g id="Group">
<path id="Vector" d="M17.4439 9.2357H15.5675C10.8764 9.2357 9 11.1121 9 15.8032V21.4325C9 26.1236 10.8764 28 15.5675 28H21.1968C25.8879 28 27.7643 26.1236 27.7643 21.4325V19.5561" stroke="white" stroke-width="2.04238" stroke-linecap="round" stroke-linejoin="round"/>
<g id="Group_2">
<path id="Vector_2" d="M22.1726 10.1927L14.7795 17.5858C14.498 17.8673 14.2165 18.4208 14.1602 18.8243L13.7568 21.6483C13.6067 22.6709 14.3291 23.384 15.3518 23.2433L18.1758 22.8398C18.5699 22.7835 19.1234 22.5021 19.4142 22.2206L26.8074 14.8275C28.0834 13.5515 28.6838 12.0691 26.8074 10.1927C24.931 8.31626 23.4486 8.91671 22.1726 10.1927Z" stroke="white" stroke-width="2.04238" stroke-miterlimit="10" stroke-linecap="round" stroke-linejoin="round"/>
<path id="Vector_3" d="M21.1124 11.2528C21.741 13.4951 23.4954 15.2496 25.7471 15.8875" stroke="white" stroke-width="2.04238" stroke-miterlimit="10" stroke-linecap="round" stroke-linejoin="round"/>
</g>
</g>
</g>
</g>
</svg>
