<svg width="248" height="248" viewBox="0 0 248 248" fill="none" xmlns="http://www.w3.org/2000/svg">
<g id="Component 5 1" clip-path="url(#clip0_93_189)">
<g id="Clip path group">
<mask id="mask0_93_189" style="mask-type:luminance" maskUnits="userSpaceOnUse" x="0" y="0" width="248" height="248">
<g id="clip0_3242_1027">
<path id="Vector" d="M248 0H0V248H248V0Z" fill="white"/>
</g>
</mask>
<g mask="url(#mask0_93_189)">
<g id="Group">
<path id="Vector_2" d="M241.864 128.291C241.742 127.196 238.584 101.263 221.21 91.6577C219.665 90.8149 218.047 90.1126 216.376 89.5559C217.766 87.4147 218.9 85.1189 219.762 82.7164C226.064 64.4021 215.315 43.9179 195.683 35.8385C194.869 35.4849 194.056 35.1555 193.242 34.8649H193.199C183.322 31.358 172.502 31.6002 162.794 35.5479C160.135 36.6619 157.616 38.0763 155.281 39.7619C147.323 11.5423 116.207 12.1913 115.815 12.201C104.858 12.4335 94.2794 16.4538 86.9944 22.9251C86.3358 21.6511 85.5847 20.4305 84.7469 19.268C72.807 3.40958 46.6797 3.93271 45.5757 3.95209C43.8366 3.99568 42.3205 5.13882 41.8022 6.79537C41.5019 7.75929 35.1953 28.6358 43.1585 44.3198C34.2653 48.0978 26.9319 54.8115 22.3739 63.3365C18.0291 71.4838 17.1185 81.0309 19.8552 89.8513C21.3567 94.4769 23.8561 98.7199 27.1741 102.275C25.8033 102.915 24.525 103.73 23.2313 104.509C11.3738 111.648 7.86691 128.02 6.68501 136.395H6.71406C6.39441 138.555 6.19096 140.725 6.08923 142.9H6.13768C6.08441 144.634 7.14031 146.208 8.76781 146.809C15.5927 149.124 22.742 150.345 29.9495 150.427C37.3024 150.674 44.5536 148.703 50.7682 144.77C52.0711 143.869 53.2965 142.862 54.4297 141.752C57.3796 147.719 61.9375 152.742 67.595 156.254C68.7721 156.961 69.9882 157.605 71.2326 158.192C73.7467 161.48 76.0863 164.901 78.2369 168.436C67.7987 163.254 57.0599 164.082 52.6233 170.955C50.061 175.629 50.2208 181.325 53.0299 185.854C47.2515 187.879 43.1972 193.11 42.6789 199.214C42.6789 208.334 53.3983 215.473 67.072 215.473C73.7662 215.677 80.344 213.662 85.7738 209.743C84.5533 217.391 80.0145 224.11 73.3738 228.101C72.2065 228.682 71.3925 229.791 71.1844 231.08C70.9762 232.368 71.3974 233.681 72.3176 234.601C78.077 239.416 84.8872 242.802 92.1966 244.487L92.4535 244.56C101.414 246.948 110.656 248.105 119.927 247.999C129.193 248.111 138.43 246.953 147.386 244.57L147.639 244.497C154.953 242.807 161.763 239.421 167.522 234.612C168.442 233.686 168.864 232.379 168.656 231.09C168.447 229.801 167.629 228.692 166.466 228.106C157.181 223.466 153.984 212.097 152.933 203.306L153.437 203.185C155.616 202.637 156.938 200.429 156.396 198.254C155.926 196.462 154.299 195.227 152.449 195.251V195.149C152.449 185.946 157.007 174.66 165.556 162.44C165.963 162.44 166.394 162.492 166.815 162.492C182.63 163.045 197.045 153.479 202.684 138.69C202.916 138.022 203.085 137.334 203.265 136.661C206.81 137.717 210.492 138.245 214.192 138.23C222.95 137.993 231.577 136.021 239.574 132.428C241.142 131.682 242.062 130.015 241.864 128.291ZM171.232 48.786C173.426 43.884 178.487 40.9148 183.836 41.3943C186.122 41.404 188.389 41.7914 190.549 42.5374H190.573L190.699 42.5858C199.093 45.5359 204.165 53.0534 201.985 59.3792C201.501 60.7064 200.726 61.9074 199.718 62.9003C199.476 60.6338 198.614 58.4828 197.219 56.6813C194.816 53.6778 191.591 51.4352 187.933 50.239C182.198 47.8122 175.582 48.8489 170.859 52.9077C170.675 51.5224 170.801 50.1177 171.232 48.786ZM191.644 64.4313C191.135 65.3321 190.234 65.9423 189.207 66.0876C187.667 66.4414 186.069 66.4512 184.523 66.1168C183.908 65.9618 183.299 65.836 182.682 65.6323H182.639L182.591 65.6084C181.951 65.3852 181.369 65.0996 180.769 64.8237C177.374 63.0846 175.804 60.4739 176.269 59.132C176.632 58.086 178.439 57.1799 181.006 57.1799C182.464 57.1994 183.908 57.4514 185.283 57.9403C187.419 58.6236 189.318 59.8973 190.752 61.6218C191.469 62.3676 191.799 63.4092 191.644 64.4313ZM150.559 58.8752C153 52.0313 158.149 46.4995 164.795 43.5691C164.306 44.3876 163.889 45.2449 163.545 46.1364C159.889 56.7344 167.27 68.9019 179.985 73.2999C181.128 73.6972 182.3 73.9974 183.496 74.1963C185.391 74.6223 187.328 74.8499 189.27 74.8792C198.12 75.3973 206.315 70.234 209.667 62.0336C209.962 61.1617 210.181 60.2702 210.326 59.3646C213.706 65.739 214.336 73.2176 212.07 80.0668C208.379 89.8415 199.525 96.7293 189.139 97.9015C185.899 95.3874 182.324 93.3388 178.522 91.8034C177.757 91.469 176.972 91.1542 176.163 90.8778C170.67 88.9744 164.857 88.1751 159.05 88.524C150.612 81.1859 147.284 69.5653 150.559 58.8752ZM159.583 105.584C157.379 106.141 155.369 107.303 153.789 108.935C153.601 107.536 153.732 106.117 154.167 104.775C155.359 101.68 157.911 99.3063 161.079 98.3471C162.925 97.7027 164.867 97.3785 166.819 97.3878C169.106 97.3976 171.372 97.7899 173.528 98.541C176.507 99.5437 179.21 101.224 181.424 103.457C181.705 104.039 182.121 104.542 182.64 104.925C185.134 107.787 186.006 111.725 184.95 115.373C184.461 116.7 183.676 117.901 182.659 118.885C182.417 116.622 181.55 114.467 180.16 112.67C175.175 106.63 167.231 103.893 159.583 105.584ZM174.584 120.435C174.124 121.781 171.276 122.871 167.522 122.14C166.882 121.965 166.243 121.834 165.609 121.612V121.631H165.574L165.526 121.607C164.887 121.389 164.306 121.098 163.71 120.827C160.314 119.088 158.745 116.477 159.205 115.135C159.719 114.235 160.619 113.619 161.646 113.474C162.397 113.28 163.172 113.189 163.952 113.193C165.405 113.208 166.849 113.46 168.219 113.944C170.356 114.622 172.254 115.901 173.688 117.62C174.409 118.371 174.739 119.408 174.584 120.435ZM78.0238 110.665C76.3432 112.21 75.1271 114.186 74.512 116.38C73.6887 115.237 73.1316 113.92 72.8845 112.525C72.4536 109.241 73.5625 105.937 75.8924 103.579V103.593C78.8183 100.488 82.7124 98.4635 86.9363 97.8484C88.094 97.6593 89.2613 97.5623 90.4287 97.5623C93.5044 97.5238 96.5415 98.2744 99.2442 99.7421C102.204 101.229 104.316 103.995 104.965 107.24C105.178 108.64 105.071 110.069 104.65 111.42C103.366 109.536 101.579 108.049 99.4913 107.129C92.24 104.179 83.9475 105.545 78.0238 110.665ZM92.8941 121.418C92.2351 121.587 91.5863 121.786 90.9035 121.902V121.917C90.2299 122.028 89.5713 122.043 88.9075 122.091C87.3482 122.159 85.7885 121.883 84.3447 121.277C83.1242 120.735 82.3395 119.965 82.2235 119.248C82.2425 118.211 82.7367 117.242 83.5697 116.622C85.2747 115.169 87.3575 114.23 89.5811 113.915C90.3317 113.789 91.0921 113.726 91.8525 113.726C93.325 113.697 94.7833 113.973 96.1394 114.54C97.3599 115.087 98.1397 115.852 98.266 116.574C98.4936 117.969 96.522 120.27 92.8941 121.418ZM95.902 89.3571C96.9675 86.8917 97.762 84.3147 98.266 81.6748C103.822 84.0578 109.813 85.2788 115.858 85.2544C125.444 85.3368 134.783 82.2124 142.392 76.376C143.812 81.4087 146.248 86.1021 149.547 90.1564C148.249 90.5488 146.97 91.004 145.715 91.5222C137.888 94.666 131.456 100.527 127.609 108.035V108.049C124.654 102.978 120.508 98.7009 115.524 95.596C109.61 91.9048 102.862 89.764 95.902 89.3571ZM115.858 20.2077C124.829 20.2077 132.124 25.6763 132.124 32.4043C132.094 33.8041 131.76 35.1749 131.14 36.4294C127.997 31.048 122.077 27.9141 115.858 28.3404C109.644 27.9141 103.72 31.048 100.576 36.4294C99.9563 35.1749 99.622 33.8041 99.5976 32.4043C99.5976 25.6763 106.892 20.2077 115.858 20.2077ZM123.991 40.5369C123.991 41.9513 121.661 43.9082 117.892 44.4509C117.219 44.5138 116.561 44.601 115.858 44.601C115.161 44.601 114.507 44.5138 113.829 44.4509C110.06 43.9082 107.731 41.9513 107.731 40.5369C107.731 38.8804 110.894 36.473 115.858 36.473C120.823 36.473 123.991 38.8804 123.991 40.5369ZM91.7121 29.6773C91.5571 30.5782 91.4747 31.4936 91.465 32.4043C91.465 43.6127 102.407 52.7337 115.858 52.7337C129.314 52.7337 140.251 43.6127 140.251 32.4043C140.246 31.4452 140.154 30.4813 139.98 29.5368C144.683 33.9833 147.614 39.9848 148.219 46.4269C143.671 52.1619 141.157 59.2388 141.065 66.5574C134.472 73.3921 125.356 77.2139 115.858 77.1267C109.9 77.1462 104.034 75.659 98.8031 72.811C98.614 70.2243 98.1198 67.6717 97.3306 65.2014C94.9281 57.7419 90.0115 51.3484 83.424 47.1049C83.909 40.4643 86.8686 34.2449 91.7121 29.6773ZM48.821 12.1574C55.389 12.511 70.9133 14.4098 78.2515 24.1505C79.4769 25.8458 80.46 27.7058 81.1672 29.6773C79.3657 32.3171 77.9366 35.1894 76.9145 38.2168C74.1537 33.0485 70.2251 28.5971 65.4445 25.2064C63.6522 23.8599 61.1045 24.2232 59.7533 26.0202C58.4066 27.8173 58.7697 30.3651 60.5669 31.7116C64.185 34.2594 67.2026 37.5629 69.4165 41.3894C63.352 40.1882 57.0988 40.2996 51.0733 41.7091C45.3866 31.9586 47.4742 18.1443 48.821 12.1574ZM49.5038 50.5973V50.6119C49.6588 50.5588 49.809 50.4862 49.9737 50.4374C50.1336 50.3892 50.2594 50.3648 50.4046 50.3214C52.3133 49.7399 54.2942 49.4348 56.2897 49.4202C61.7971 48.9215 66.9945 52.0264 69.1645 57.1122C69.5715 58.4687 69.6733 59.8973 69.4501 61.2923C67.905 59.6165 65.9241 58.4053 63.7297 57.7902C60.0097 56.8168 56.0816 56.9523 52.4342 58.1684C46.3795 59.6502 41.686 64.4313 40.32 70.5148C39.3513 69.5073 38.615 68.3014 38.1694 66.9742C36.1738 60.6772 41.2452 53.436 49.5038 50.5973ZM59.2786 72.8837C58.6391 73.1498 58.0288 73.4452 57.365 73.6538V73.6684C56.6967 73.8814 56.0382 73.9926 55.3744 74.1334C51.6251 74.7676 48.8112 73.6099 48.3847 72.2637C47.8812 70.6796 50.1672 67.4294 54.8899 65.9184C56.1976 65.4871 57.5638 65.2643 58.9442 65.2497C61.647 65.2497 63.546 66.2235 63.8896 67.3178C64.321 68.6646 62.6983 71.2221 59.2786 72.8837ZM51.4657 132.534C51.4657 132.636 51.514 132.727 51.5286 132.83C50.0658 134.859 48.2736 136.627 46.2196 138.056C36.1157 144.944 20.7852 141.795 14.4641 140.057C14.5803 138.894 14.7305 137.717 14.9145 136.578C14.9339 136.419 14.9436 136.268 14.9436 136.113H14.9727C16.1594 128.862 19.9312 115.927 27.8425 111.202C29.8285 109.899 32.0082 108.926 34.2992 108.32C37.777 110.534 41.5842 112.176 45.5801 113.197C39.0364 117.116 33.006 121.834 27.6245 127.234C26.5686 128.256 26.1424 129.768 26.5153 131.187C26.8883 132.611 27.9975 133.72 29.4216 134.093C30.8408 134.466 32.352 134.04 33.3741 132.984C38.9105 127.424 45.2072 122.671 52.076 118.869C50.9276 123.331 50.7195 127.986 51.4657 132.534ZM58.0917 106.262C50.7049 106.804 43.3522 104.784 37.2782 100.546C32.7202 97.3298 29.3247 92.7188 27.61 87.4098C25.5272 80.6385 26.2489 73.3194 29.6057 67.0809C29.6686 66.9498 29.7558 66.8387 29.8188 66.7124C29.9447 67.6327 30.1433 68.5437 30.4194 69.4298C33.6841 77.9212 42.0735 83.3121 51.1508 82.7647C52.9475 82.7452 54.7349 82.5517 56.4935 82.1885C58.7649 81.8347 60.969 81.1323 63.0225 80.1009C67.5467 78.1342 71.4266 74.9421 74.2263 70.8877C77.5925 66.1748 78.581 60.1688 76.9096 54.6224C76.585 53.7265 76.1882 52.8546 75.7183 52.0215C82.2912 55.1069 87.3092 60.7596 89.586 67.6571C91.814 75.0873 90.7241 83.1185 86.5874 89.6817C86.2632 89.7251 85.9386 89.7446 85.614 89.7977C75.2387 91.3964 65.8174 96.7488 59.1333 104.838C58.76 105.303 58.4407 105.792 58.0917 106.262ZM71.9496 149.371C65.3572 145.405 60.8042 138.778 59.4721 131.202C58.5372 125.312 59.6661 119.277 62.6642 114.123C63.4782 113.852 63.9769 113.716 64.0012 113.716C64.2869 113.619 64.5632 113.494 64.8147 113.334C64.8391 113.503 64.8391 113.668 64.8683 113.837C65.8949 119.529 69.4988 124.426 74.6285 127.1C78.5517 129.25 82.9644 130.364 87.4399 130.325C89.0483 130.32 90.6515 130.184 92.24 129.918C93.3157 129.734 94.3812 129.468 95.4224 129.129C100.252 127.859 104.621 125.244 108.026 121.587C112.032 117.412 113.872 111.614 113.02 105.893C112.865 104.987 112.632 104.101 112.337 103.234C118.338 107.23 122.441 113.512 123.686 120.618C126.234 136.104 113.931 151.071 96.2169 153.982C87.8371 155.474 79.201 153.832 71.9496 149.371ZM67.072 207.346C57.7622 207.346 50.8116 203.05 50.8116 199.214C50.8116 195.377 57.7622 191.081 67.072 191.081C76.3817 191.081 83.3372 195.377 83.3372 199.214C83.3372 203.05 76.3817 207.346 67.072 207.346ZM67.072 182.953C65.0424 182.953 63.0176 183.122 61.0172 183.457C59.0749 181.219 58.4841 178.114 59.4672 175.324H59.4721C61.5597 172.103 69.7313 172.282 77.554 177.334C81.1819 179.572 84.161 182.725 86.1808 186.479C86.4519 187.535 86.7087 188.591 86.8876 189.642C81.3271 185.055 74.2746 182.672 67.072 182.953ZM157.456 231.817C154.046 233.682 150.447 235.174 146.718 236.268C139.341 233.051 133.906 226.556 132.041 218.729C131.789 217.271 130.767 216.065 129.367 215.575C127.972 215.091 126.417 215.401 125.318 216.389C124.219 217.377 123.739 218.889 124.073 220.332C125.551 227.632 129.605 234.161 135.495 238.729C125.173 240.235 114.681 240.235 104.354 238.729C110.239 234.171 114.294 227.651 115.781 220.352C116.11 218.913 115.636 217.402 114.531 216.414C113.432 215.425 111.882 215.115 110.482 215.6C109.082 216.089 108.06 217.295 107.808 218.753C105.943 226.575 100.504 233.066 93.1315 236.278C89.4066 235.188 85.8026 233.696 82.3975 231.831C90.574 224.856 93.7271 213.784 94.8945 204.929C103.153 206.445 111.528 207.254 119.927 207.346C128.326 207.249 136.697 206.43 144.959 204.905C146.122 213.769 149.275 224.847 157.456 231.817ZM144.32 195.149V196.772C136.275 198.293 128.113 199.112 119.927 199.214C111.741 199.112 103.574 198.293 95.534 196.772V195.149C95.534 183.689 90.1382 171.918 83.9524 162.182C85.9917 162.473 88.0457 162.623 90.1041 162.623C92.5841 162.618 95.0592 162.414 97.51 162.013C99.0507 161.756 100.581 161.412 102.087 160.991C105.802 167.714 107.745 175.27 107.731 182.952C107.731 185.195 109.547 187.016 111.794 187.016C114.042 187.016 115.858 185.195 115.858 182.952C115.878 174.297 113.785 165.772 109.76 158.114C117.786 154.297 124.335 147.952 128.404 140.051C128.525 140.284 128.621 140.522 128.752 140.759C130.598 144.018 132.884 147.012 135.543 149.652C128.036 159.126 123.967 170.862 123.991 182.952C123.991 185.195 125.812 187.016 128.055 187.016C130.303 187.016 132.124 185.195 132.124 182.952C132.138 172.756 135.553 162.856 141.826 154.82C145.085 157.01 148.617 158.767 152.327 160.041C153.717 160.521 155.117 160.909 156.517 161.262C148.418 173.662 144.32 185.045 144.32 195.149ZM194.996 136.046C189.885 150.882 171.944 158.201 154.976 152.355C146.902 149.681 140.092 144.135 135.839 136.768C131.944 130.369 131.014 122.589 133.296 115.455C135.577 108.315 140.842 102.517 147.725 99.5578C147.241 100.377 146.824 101.239 146.481 102.125C142.824 112.724 150.206 124.896 162.925 129.294C164.083 129.691 165.269 129.996 166.481 130.2C168.36 130.616 170.278 130.844 172.206 130.874C181.055 131.391 189.256 126.223 192.607 118.017C192.902 117.15 193.121 116.254 193.266 115.349C196.647 121.723 197.272 129.202 194.996 136.046ZM204.489 128.534C204.591 122.197 203.007 115.954 199.902 110.432C203.816 111.852 207.429 113.983 210.572 116.71C212.166 118.25 214.704 118.231 216.269 116.661C217.838 115.092 217.862 112.559 216.322 110.96C212.079 107.202 207.153 104.3 201.806 102.425C205.006 100.89 207.967 98.8944 210.587 96.5017C212.917 96.9087 215.174 97.6739 217.271 98.7735C227.957 104.678 232.006 119.785 233.28 126.237C227.686 128.354 214.792 132.307 204.489 128.534Z" fill="#AE8646"/>
</g>
</g>
</g>
</g>
<defs>
<clipPath id="clip0_93_189">
<rect width="248" height="248" fill="white"/>
</clipPath>
</defs>
</svg>
